<svg xmlns="http://www.w3.org/2000/svg" width="138" height="46" viewBox="0 0 138 46"><defs><style>.a{fill:#fff;}.b{fill:#424548;}.c{fill:#f07400;}</style></defs><g transform="translate(-497 -1832)"><rect class="a" width="138" height="46" transform="translate(497 1832)"/><g transform="translate(1104.399 24.043)"><path class="b" d="M-548.222,1836.152l-4.817-10.246h-1.331l-5.06,10.866h1.514l1.836-3.886h3.995l1.306,2.713v0c.027.056.069.149.11.235a1.73,1.73,0,0,0,1.487.935h1.229Zm-7.395-4.245,1.518-3.208,1.543,3.208Z" transform="translate(-4.423 -0.426)"/><path class="b" d="M-562.2,1827.161a7.748,7.748,0,0,0-4.94-1.413h-4.529v9.6a1.47,1.47,0,0,0,.368,1.227,2.1,2.1,0,0,0,1.378.328h3.99a5.509,5.509,0,0,0,5.756-5.248,5.425,5.425,0,0,0-2.022-4.493m-4.515,8.777h-2a.514.514,0,0,1-.389-.185.675.675,0,0,1-.093-.414v-8.627h2.132a4.262,4.262,0,0,1,3.317,1.112,4.853,4.853,0,0,1,1.207,3.767c-.027,2.769-1.5,4.326-4.17,4.347" transform="translate(-3.079 -0.412)"/><path class="b" d="M-512.374,1825.633v0a5.871,5.871,0,0,0-4.424,1.735,5.705,5.705,0,0,0-1.484,3.939,5.929,5.929,0,0,0,5.907,5.7h.011a5.812,5.812,0,0,0,4.385-1.734,5.743,5.743,0,0,0,1.483-3.963,5.919,5.919,0,0,0-5.879-5.671m0,10.387c-1.955,0-3.635-1.533-3.652-4.716.017-3.158,1.7-4.686,3.652-4.69,1.923,0,3.608,1.532,3.626,4.69-.018,3.183-1.7,4.714-3.626,4.716" transform="translate(-8.948 -0.402)"/><path class="b" d="M-498.334,1825.633v0a5.875,5.875,0,0,0-4.425,1.735,5.7,5.7,0,0,0-1.482,3.939,5.927,5.927,0,0,0,5.907,5.7h.009a5.824,5.824,0,0,0,4.39-1.735,5.743,5.743,0,0,0,1.477-3.962,5.915,5.915,0,0,0-5.876-5.671m0,10.387c-1.955,0-3.636-1.533-3.654-4.716.018-3.158,1.7-4.688,3.654-4.69,1.923,0,3.606,1.532,3.619,4.69-.013,3.183-1.7,4.714-3.619,4.716" transform="translate(-10.491 -0.402)"/><path class="b" d="M-545.686,1835.219a1.333,1.333,0,0,0,.67,1.27,2.483,2.483,0,0,0,1.5.284h6.419v-.981h-5.723a.663.663,0,0,1-.486-.13.627.627,0,0,1-.128-.468V1831.6h5.089v-.982h-5.089v-3.731h5.769v-.981h-8.024Z" transform="translate(-5.899 -0.426)"/><path class="b" d="M-466.96,1831.188h-4.506v.981h2.181a.567.567,0,0,1,.313.12.4.4,0,0,1,.144.273v2.61a3.4,3.4,0,0,1-2.441.844,3.986,3.986,0,0,1-4.088-4.3,5.759,5.759,0,0,1,1.048-3.8,3.279,3.279,0,0,1,2.617-1.306,2.539,2.539,0,0,1,2.742,2.2h1.935c0-.66-.743-3.188-4.786-3.188a5.357,5.357,0,0,0-4.3,1.765,6.035,6.035,0,0,0-1.5,4.2c0,2.841,2.466,5.406,6.019,5.406a8.622,8.622,0,0,0,3.308-.654c.8-.362,1.314-.775,1.324-1.274Z" transform="translate(-13.388 -0.402)"/><path class="b" d="M-520.673,1825.768l-3.587,8.263-3.489-8.263h-2.313l1.987,4.789-1.554,3.474-3.491-8.263h-2.311l4.254,10.235c.123.286.38.883,1,.883.477,0,.7-.092,1.1-.9l1.658-3.857,1.621,3.891c.122.287.381.862,1,.862.466,0,.737-.159,1.08-.873l4.386-10.245Z" transform="translate(-7.127 -0.414)"/><path class="b" d="M-479.976,1825.769h-1.388v7.287c-.765-.956-3.885-4.855-5.029-6.281a2.081,2.081,0,0,0-1.823-1.007h-1.65v10.875h1.386v-9.191s6.069,7.563,6.6,8.285.936,1.136,1.269,1.149h.016a.6.6,0,0,0,.452-.173.779.779,0,0,0,.169-.559Z" transform="translate(-12.342 -0.414)"/><path class="c" d="M-588.443,1836.851c-.2-.047-.357.13-.184.3,0,0,1.7,1.5,1.367,5.622h3.083s-.1-4.987-4.266-5.918" transform="translate(-0.938 -1.857)"/><path class="c" d="M-597.093,1835.433s-.358.084-.17.34c0,0,1.876,2.547-.73,6.876h3.555s1.341-4.936-2.654-7.216" transform="translate(-0.145 -1.737)"/><path class="c" d="M-584.668,1834.427c-.068-.026-.12-.079-.091-.153s.1-.1.165-.144a2.887,2.887,0,0,0,1.419-2.688,2.271,2.271,0,0,0,2.381-2.312.952.952,0,0,0,.334-1.456.786.786,0,0,0,.041-1.131.876.876,0,0,0-.167-1.092s.763-1.182-.123-1.67a.978.978,0,0,0-.724-.1,1.331,1.331,0,0,0-.366.156,1.691,1.691,0,0,0-.533.54,16.827,16.827,0,0,0-.863,1.473l-1.567-1.373c-.106-.1.027-.28.087-.371a1.3,1.3,0,0,1,.423-.373,2.473,2.473,0,0,1,.561-.248c.144-.043.478-.1.474-.3,0-.129-.153-.173-.257-.186a2.309,2.309,0,0,0-.256-.026c-.064,0-.154.012-.2-.048a.17.17,0,0,1-.02-.131c.013-.058.085-.081.141-.093,0,0,.561-.13.531-.263a4.672,4.672,0,0,0-.41-.892s-.083-.153-.435.134a.431.431,0,0,1-.178.121c-.171.034-.313-.139-.424-.24a2.342,2.342,0,0,0-.473-.347,1.83,1.83,0,0,0-.776-.2c-.045,0-.091,0-.136,0a1.969,1.969,0,0,0-.677.119.3.3,0,0,1-.263-.016,1.816,1.816,0,0,0-.2-.139.66.66,0,0,0-.281-.063.627.627,0,0,0-.638.621.594.594,0,0,0,0,.07.157.157,0,0,0,0,.034.616.616,0,0,0,.1.239l.03.043c.021.024.047.049.047.08a.094.094,0,0,1-.032.069,4.191,4.191,0,0,0-1.081,1.87s-2.083-1.514-3.752-.936a2.041,2.041,0,0,0-.327.146s1.118.564,1.327,1.09l-3.724.606c-.215-.021,0-.122,0-.122l3.107-2.543a1.146,1.146,0,0,0,.263-.325.439.439,0,0,0-.008-.486.688.688,0,0,0-.427-.166,2.445,2.445,0,0,0-.335-.016h-2.769s-.278.006-.325.13c-.037.1.082.212.148.272.14.126.258.182.263.384a1.146,1.146,0,0,1-.211.585l-1.495,2.535-2.086.25a.4.4,0,0,0-.145.053.162.162,0,0,0-.036.277,1.158,1.158,0,0,0,.394.168l.382,1.1s.128.6.917.248a.425.425,0,0,1,.469.459v5.423a5.029,5.029,0,0,1,1.724.625v-1.6h3.073l0,.769a.774.774,0,0,1-.832.769h-1.916s-.246.091.127.312a6.427,6.427,0,0,1,2.686,6.961l3.05,0a6.052,6.052,0,0,0-2.1-4.9c-.07-.054-.1-.1-.1-.128,0-.062.067-.079.115-.089l.064-.016a3.777,3.777,0,0,0,2.947-3.535l.016-4.917c.027-.983.185-1.163.381-1.163.111,0,.157.2.237.493a3.076,3.076,0,0,0,.82,1.484c.287.273.574.551.864.828l1.711,1.649s1.086,1.642-1.25,2.959c-.126.071-.277.105-.343.244-.082.173.113.343.221.454a5.245,5.245,0,0,1,.758,1.062,8.615,8.615,0,0,1,1.15,5.574h3.538s.327-4.815-4.14-6.485m-7.963-3.336h-3.107v-.781h3.107Zm0-2.055h-3.107v-.779h3.107Zm1.914,5c-.079.056-.131-.105-.131-.105v-5.943c0-.851-.659-.833-.659-.833h-4.365c-.555,0-.578-.435-.578-.435l4.475-1.454a.289.289,0,0,1,.223,0,.234.234,0,0,1,.11.175,1.5,1.5,0,0,0,.1.287,2.183,2.183,0,0,0,1.721,1.144l0,5.672a1.659,1.659,0,0,1-.895,1.5m4.624-12.56a.4.4,0,0,1,.4.391.392.392,0,0,1-.4.386.394.394,0,0,1-.4-.386.4.4,0,0,1,.4-.391m-.5,5.438a.934.934,0,0,1-.044-1.414.906.906,0,0,1,1.078-.041l2.813,2.507c.17-1.412.8-1.745.8-1.745a.425.425,0,0,1,.594.083c.194.266-.111.637-.111.637a.334.334,0,0,1,.2.42.49.49,0,0,1-.145.277.421.421,0,0,1-.1.078.176.176,0,0,1,.172.091.447.447,0,0,1,.046.211.665.665,0,0,1-.178.451,1.287,1.287,0,0,1-.436.288,1.078,1.078,0,0,1-.38,1.032,1.056,1.056,0,0,1-1.224.078Z" transform="translate(0)"/></g></g></svg>