<svg xmlns="http://www.w3.org/2000/svg" width="138" height="46" viewBox="0 0 138 46"><defs><style>.a{fill:#fff;}.b{fill:#5e5552;}.c{fill:#00388d;}</style></defs><g transform="translate(-714 -1940)"><rect class="a" width="138" height="46" transform="translate(714 1940)"/><g transform="translate(559.649 1559.039)"><g transform="translate(212.774 395.246)"><g transform="translate(1.568 0)"><path class="b" d="M355.475,403.285a3.43,3.43,0,0,0,.318-1.64v-3.155h-3.938v.545h2.994v2.22a5.308,5.308,0,0,1-.229,2.03h-.161v-2.557h-1.023l.022.025a.659.659,0,0,1,.11.458v2.075h-.445v-2.557h-1.017l.019.03a.789.789,0,0,1,.108.453v2.075h-.764v.54H356.3v-.54Z" transform="translate(-323.839 -398.16)"/><path class="b" d="M324.365,397.709h-.872l.036.026a.5.5,0,0,1,.178.456v1.048h-.421V397.9c0-.13-.066-.19-.206-.19h-.89l.041.028a.5.5,0,0,1,.186.454v2.475a1.608,1.608,0,0,1-.627.112H320.67v-2.3h1.346v-.545h-2.522l.03.027a.669.669,0,0,1,.177.517v2.245a.558.558,0,0,0,.6.6h1.459a1.133,1.133,0,0,0,.658-.182v2.182h.869v-3.544h.421v3.544h.864V397.9C324.572,397.769,324.506,397.709,324.365,397.709Z" transform="translate(-303.258 -397.658)"/><path class="b" d="M340.41,398.768V397.8c0-.129-.065-.189-.207-.189h-.991l.043.029a.5.5,0,0,1,.2.452v3.132h-2.974v.539h2.9c.052,0,.072.031.072.114v1.353h.957v-3.917h.857v-.545Zm-1.44.8a1.171,1.171,0,0,0-.408-.872h.471v-.526h-1.05v-.607h-1.065l-.006.025s.121.071.121.351v.231h-1.05v.526h.477a1.17,1.17,0,0,0-.408.872,1.474,1.474,0,0,0,2.917,0Zm-2.066,0a.622.622,0,1,1,.607.755A.693.693,0,0,1,336.9,399.573Z" transform="translate(-313.872 -397.567)"/><path class="b" d="M292.31,400.335v-.371h1.449v-.527h-2.881v-.3h2.881V398.6h-2.881v-.313h2.881v-.527H289.7l.033.025a.614.614,0,0,1,.191.514v1.069a.623.623,0,0,0,.677.6h.753v.371h-2.01v.526h5.008v-.526Zm-1.317,2.167h2.333c.3,0,.44-.164.44-.5v-.657c0-.129-.066-.188-.206-.188h-3.577v.539h2.827v.3h-2.954l0,.026s.187.07.187.442v.276a.644.644,0,0,0,.683.615h3.058v-.533h-2.785Z" transform="translate(-283.851 -397.691)"/><path class="b" d="M308.741,397.709h-1.008l.045.028a.5.5,0,0,1,.212.453v1.936a2.468,2.468,0,0,1-.874.144h-1.64V399.6h1.389c.3,0,.439-.163.439-.5v-1.07c0-.129-.064-.188-.205-.188h-2.634v.532h1.956v.691h-2.1l.027.026a.665.665,0,0,1,.168.507v.6a.561.561,0,0,0,.6.6h1.944a1.891,1.891,0,0,0,.922-.223v.736h-3.042v.539h2.971c.052,0,.072.031.072.114v1.353h.957V397.9C308.946,397.77,308.881,397.709,308.741,397.709Z" transform="translate(-293.494 -397.658)"/><path class="b" d="M278.311,398.994V397.93c0-.182-.112-.221-.205-.221h-.977l.041.028a.5.5,0,0,1,.186.454v5.132h.956v-3.789h.857v-.539Zm-4.379-.55h1.642v.1a2.2,2.2,0,0,1-1.633,2.405l-.01,0v.535h.014a2.852,2.852,0,0,0,2.686-3.013v-.57h-2.7Z" transform="translate(-273.932 -397.658)"/></g><path class="b" d="M277.344,420.944h-1.65l.073.047a.815.815,0,0,1,.346.741v1.724H274.4v.881h1.712v5.92h1.566v-9C277.68,421.044,277.574,420.944,277.344,420.944Zm-4.195,1.727v-1.514H271.1l.077.048a.753.753,0,0,1,.374.682v.784a4.456,4.456,0,0,1-1.982,3.65l-.036.011.91.728.012,0a5.369,5.369,0,0,0,1.891-2.179,5.811,5.811,0,0,0,1.906,2.179l.011,0,.874-.739A4.477,4.477,0,0,1,273.15,422.672Zm5.507,3.323h3.427v.436h-2.318v.89h4.776v.5h-4.988l-.006.044s.309.114.309.732v.455a1.068,1.068,0,0,0,1.132,1.019h5.3v-.88h-4.855v-.529h3.958c.49,0,.727-.273.727-.831v-1.085c0-.214-.108-.313-.34-.313h-2.116v-.436h3.425v-.871h-8.434Zm4.224-1.165c1.652,0,2.949-.9,2.949-2.041,0-1.126-1.323-2.042-2.949-2.042s-2.962.916-2.962,2.042C279.919,423.934,281.22,424.83,282.88,424.83Zm0-3.18a1.14,1.14,0,1,1,0,2.276,1.14,1.14,0,1,1,0-2.276Zm34.172,2.995a2.149,2.149,0,0,0,2.367-1.9,2.429,2.429,0,1,0-2.367,1.9Zm0-2.959a1.071,1.071,0,0,1,0,2.12,1.072,1.072,0,0,1,0-2.12Zm-4.408-.617H311l.073.045a.82.82,0,0,1,.348.744v.453H310.26v-.945h-1.968l.066.038.029.016a.654.654,0,0,1,.361.662v.651h-1.569v-1.366h-1.851v.046c.123.047.327.2.327.67v2.812a.941.941,0,0,0,1.007,1h3.6v-.735h1.156v1.215a3.687,3.687,0,0,0-1.391-.267c-1.619,0-2.932,1.016-2.932,2.261s1.313,2.26,2.932,2.26,2.955-1.016,2.955-2.26c0-.026,0-.051,0-.076h0v-6.913C312.98,421.166,312.875,421.068,312.644,421.068Zm-3.9,3.94h-1.569v-1.383h1.569Zm1.259,4.75a1.382,1.382,0,1,1,1.4-1.382A1.38,1.38,0,0,1,310.007,429.758Zm1.409-5.473H310.26v-1.1h1.156Zm10.2-3.242h-1.571l.055.04a1.015,1.015,0,0,1,.287.774v4.55H318.5v.778h1.887v2.179h-2.975v-1.648h-1.731l.025.041a1.609,1.609,0,0,1,.141.747v.746a.95.95,0,0,0,1,1.008h5.1v-.524h0v-8.38C321.949,421.142,321.843,421.044,321.614,421.044Zm-3.569,4.713h1.924v-.841h-5.616v.841h1.918c-.017.31-.4.676-1.225.767h-.02v.846h.023A3.051,3.051,0,0,0,318.044,425.756Zm-27.6-1.488a4.4,4.4,0,0,0,2.225,1.612l.012,0,.787-.734-.031-.013a3.507,3.507,0,0,1-2.2-2.986v-.941h-2.025l.075.045a.739.739,0,0,1,.365.669v.228a3.6,3.6,0,0,1-2.205,3.023l-.036.01.789.736.011,0A4.411,4.411,0,0,0,290.443,424.268Zm4.671-3.2h-1.651l.074.045a.819.819,0,0,1,.348.744v.827h-1.713v.885h1.713v2.8a3.685,3.685,0,0,0-1.392-.267c-1.617,0-2.932,1.016-2.932,2.261s1.315,2.26,2.932,2.26,2.956-1.016,2.956-2.26c0-.023,0-.043,0-.063h0v-6.926C295.45,421.166,295.343,421.068,295.114,421.068Zm-2.638,8.69a1.383,1.383,0,0,1,.015-2.765,1.366,1.366,0,0,1,1.381,1.383A1.39,1.39,0,0,1,292.477,429.758Zm9.066-3.383h2.373v-4.913H297.2l-.011.04.02.01a.79.79,0,0,1,.4.771v3.086a.95.95,0,0,0,1.02,1.007h1.352V429h-3.145v.884h7.855V429h-3.145Zm-2.371-.871v-3.147h3.179V425.5Z" transform="translate(-269.533 -412.487)"/></g><g transform="translate(181.351 393.961)"><path class="c" d="M207.173,397.109a33.278,33.278,0,0,0-24.677,0c-.246.121-.364.229-.364.506v12.7c0,.277.118.384.364.5a33.26,33.26,0,0,0,24.677,0c.246-.12.363-.228.363-.5v-12.7C207.536,397.337,207.418,397.229,207.173,397.109Zm-3.7.2a.739.739,0,0,1,.925-.571.692.692,0,0,1,.285.15l.005,0-.081.223-.01-.013a.507.507,0,0,0-.248-.156.477.477,0,0,0-.377.043.682.682,0,0,0-.238.863.478.478,0,0,0,.291.226.6.6,0,0,0,.3.009l.017,0-.051.232h-.007a.789.789,0,0,1-.321-.03A.728.728,0,0,1,203.472,397.311Zm-1.794-1.186,0-.01.214.042-.306,1.523-.212-.042Zm-2.523-.4,0-.011.215.029s-.172,1.309-.175,1.328c.019,0,.573.075.573.075l-.03.212-.788-.1Zm-3.209.515a.875.875,0,0,1,.256-.613.628.628,0,0,1,.459-.155.706.706,0,0,1,.632.836.881.881,0,0,1-.25.615.674.674,0,0,1-.909-.047A.875.875,0,0,1,195.947,396.236Zm-2.673-.759s.02.622.021.642l.639-.022c0-.02-.021-.641-.021-.641l.207-.007h.01l.052,1.552-.218.008s-.023-.679-.023-.7l-.64.021c0,.019.023.7.023.7l-.217.008-.052-1.552Zm-.416,2.146c.7-.041,1.366-.063,1.981-.063a33.687,33.687,0,0,1,9.706,1.387H192.858Zm0,2.033h12.291c0,.03,0,.057,0,.083v.349H194.2v3h5.04v.433h-6.384Zm2.053,2.72v-.436h10.241v.436Zm10.241.709v.433h-5.2v-.433Zm-10.241-1.85V400.8h10.241v.436Zm4.331,2.992v2.719h-8.725v-.434h7.212V404.66h-7.212v-5.718H185.15a29.907,29.907,0,0,1,7-1.271v6.556Zm-7.949-8.613h.009l.024.211s-.406.047-.427.048c0,.02.151,1.331.151,1.331l-.217.025s-.148-1.312-.15-1.331l-.427.047-.024-.212Zm-3.285.482.21-.04h.006l.872,1.413-.232.046-.21-.354-.651.124c0,.013-.065.407-.065.407l-.225.041Zm-2.937.893a.71.71,0,0,1,.44-.337.672.672,0,0,1,.32-.02h.006l.047.233-.017-.005a.509.509,0,0,0-.59.225.623.623,0,0,0-.04.476.535.535,0,0,0,.651.43.6.6,0,0,0,.263-.15l.01-.013.078.224-.006.006a.763.763,0,0,1-.289.139.711.711,0,0,1-.55-.052.848.848,0,0,1-.382-.527A.824.824,0,0,1,185.072,396.989Zm-.545,2.751c0-.029,0-.058,0-.09h5.277v5.01h-5.281Zm0,5.629H197.02v.434h-7.212v1.852H199.95v-3.428h5.2v3.621a.922.922,0,0,1-.122.5.747.747,0,0,1-.274.213,23.64,23.64,0,0,1-4.807,1.1v-1.57h-15.4a1.731,1.731,0,0,1-.021-.241Zm14.715,3.428v.951a38.635,38.635,0,0,1-4.4.278,35.214,35.214,0,0,1-9.222-1.229Zm-14.806,2.014a.509.509,0,0,1-.307-.253.727.727,0,0,1,.01-.559l.291-.85,0-.009.206.07-.286.833a.569.569,0,0,0-.025.422.331.331,0,0,0,.4.139.566.566,0,0,0,.241-.349l.285-.831.205.071-.294.859C185.03,410.762,184.769,410.924,184.436,410.81Zm1.724.511s-.232-1.3-.242-1.358c-.019.063-.345,1.188-.345,1.188l-.21-.062.43-1.48,0-.01.274.079s.225,1.263.236,1.326l.337-1.16.21.06-.433,1.491Zm.9.237-.21-.053.378-1.5,0-.009.211.052Zm.774.184-.181-1.615v-.014l.237.052.128,1.382.7-1.2.223.048-.854,1.4Zm2.063-.965-.566-.1c0,.019-.071.4-.075.421l.517.09-.037.21-.516-.092c0,.019-.082.46-.084.479l.566.1-.038.21-.78-.138.268-1.52,0-.01.78.137Zm1.166.379a.353.353,0,0,1-.321.313.266.266,0,0,1,.1.167l.182.654-.247-.032-.139-.563c-.04-.15-.1-.158-.2-.173l-.108-.015c0,.02-.091.676-.091.676l-.216-.031.208-1.528,0-.011.345.048a.633.633,0,0,1,.423.181.369.369,0,0,1,.067.224A.6.6,0,0,1,191.065,411.157Zm.717.279a.524.524,0,0,1,.311.519.449.449,0,0,1-.558.414.847.847,0,0,1-.278-.093l-.006,0,.044-.222.012.007a.75.75,0,0,0,.274.1.291.291,0,0,0,.2-.058.225.225,0,0,0,.079-.156c.015-.15-.1-.224-.224-.309a.475.475,0,0,1-.294-.471.413.413,0,0,1,.492-.38.873.873,0,0,1,.291.086l.007,0-.053.218-.01-.006a.58.58,0,0,0-.247-.088.276.276,0,0,0-.188.043.184.184,0,0,0-.062.128C191.564,411.289,191.665,411.357,191.783,411.436Zm.814,1-.217-.015.113-1.54v-.008l.217.014Zm1.421-1.266-.428-.02c0,.02-.06,1.338-.06,1.338l-.218-.01s.059-1.318.059-1.338l-.428-.019.009-.2V410.9l1.075.049Zm1.464-.19-.538.885,0,.651h-.216s0-.642,0-.649l-.538-.889-.008-.016h.254s.387.649.4.677l.4-.677.254,0Zm1.812,1.3a.618.618,0,0,1-.443.2c-.408.025-.691-.274-.72-.76a.709.709,0,0,1,.625-.843c.4-.023.692.283.721.762A.868.868,0,0,1,197.293,412.277Zm.777.083-.217.021-.156-1.544.739-.076h.009l.021.212-.532.054c0,.017.041.407.042.425l.51-.051.021.212-.51.052C198,411.684,198.07,412.36,198.07,412.36Zm2.457-.329s-.285.045-.294.042-.662-.595-.7-.628c.007.05.112.724.112.724l-.215.033-.238-1.534.215-.034s.093.6.1.648c.069-.108.464-.733.471-.738l.259-.039.022,0-.535.826c.012.012.825.7.825.7Zm.749-.12c-.4.081-.724-.177-.819-.655a.706.706,0,0,1,.5-.919c.394-.08.723.184.818.654A.7.7,0,0,1,201.275,411.911Zm1.723-.42-.338-.47a.186.186,0,0,0-.249-.087s-.089.024-.105.027l.164.661-.212.052-.374-1.508.337-.083a.62.62,0,0,1,.459.012.421.421,0,0,1,.174.269.563.563,0,0,1,.01.1.347.347,0,0,1-.193.313.249.249,0,0,1,.156.117l.409.541Zm.538-.144-.433-1.492.751-.217.011,0,.058.2-.55.16c0,.016.114.392.12.411.019-.007.5-.147.5-.147l.06.206-.5.145c0,.02.13.449.135.466l.551-.16.061.2Zm2.07-.652-.257-.321-.627.211c0,.014-.009.412-.009.412l-.218.074.069-1.662.2-.07h.006l1.055,1.282Zm-9.017-13.835a.387.387,0,0,0,.287-.1.77.77,0,0,0,.046-.954.4.4,0,0,0-.555-.029.684.684,0,0,0-.191.47C196.162,396.52,196.262,396.842,196.589,396.86Zm8.136,13.514c.024-.009.468-.158.493-.167-.017-.02-.445-.559-.477-.6C204.741,409.659,204.726,410.347,204.725,410.374Zm3.434-13.525a.987.987,0,0,0-.39-.339,34.085,34.085,0,0,0-25.868,0,1,1,0,0,0-.391.339,1.579,1.579,0,0,0-.16.76v12.705a1.582,1.582,0,0,0,.16.762,1.026,1.026,0,0,0,.363.326,34.1,34.1,0,0,0,25.923,0,1.024,1.024,0,0,0,.363-.326,1.562,1.562,0,0,0,.16-.762V397.609A1.559,1.559,0,0,0,208.16,396.849Zm-.355,13.472a.888.888,0,0,1-.071.435.555.555,0,0,1-.222.224,33.608,33.608,0,0,1-25.353,0,.552.552,0,0,1-.222-.224.894.894,0,0,1-.072-.435v-12.7a.894.894,0,0,1,.072-.435.549.549,0,0,1,.222-.223,33.591,33.591,0,0,1,25.353,0,.552.552,0,0,1,.222.223.888.888,0,0,1,.071.435Zm-10.752.865a.383.383,0,0,0-.285-.094.378.378,0,0,0-.27.127.778.778,0,0,0,.051.954.413.413,0,0,0,.565-.033.784.784,0,0,0-.061-.955Zm-6.45-.306-.179-.025c0,.02-.057.424-.061.441l.158.021a.317.317,0,0,0,.238-.043.211.211,0,0,0,.078-.144.178.178,0,0,0,0-.036C190.84,410.978,190.756,410.9,190.6,410.88Zm10.693-.28a.4.4,0,0,0-.546.109.677.677,0,0,0-.069.5c.054.267.232.556.553.491a.386.386,0,0,0,.254-.165.681.681,0,0,0,.066-.5A.671.671,0,0,0,201.3,410.6Zm1.025-.323-.175.044c.006.019.1.413.109.433l.153-.039c.148-.036.232-.12.232-.232a.284.284,0,0,0-.009-.06C202.6,410.29,202.485,410.238,202.321,410.277Zm-14.165-13.959c-.007.05-.115.73-.12.756l.512-.1C188.534,396.954,188.181,396.363,188.155,396.318Z" transform="translate(-181.351 -393.961)"/></g></g></g></svg>