<svg xmlns="http://www.w3.org/2000/svg" width="138" height="46" viewBox="0 0 138 46"><defs><style>.a{fill:#fff;}.b{fill:#00588e;}</style></defs><g transform="translate(-887 -1832)"><rect class="a" width="138" height="46" transform="translate(887 1832)"/><g transform="translate(-1802.626 1952.947)"><path class="b" d="M2746.542-105.393a8.2,8.2,0,0,0-1.177.086,8.181,8.181,0,0,0-4.666,2.37,8.4,8.4,0,0,0-2.354,5.394V-90.4a5.8,5.8,0,0,1-1.515-.54,5.881,5.881,0,0,1-1.931-1.617,5.812,5.812,0,0,1-1.221-3.567v-9.262a5.854,5.854,0,0,1,4.667-5.724v9.255a6.938,6.938,0,0,1,2.354-2.876v-8.766a8.3,8.3,0,0,0-1.177-.085,8.3,8.3,0,0,0-1.177.085,8.21,8.21,0,0,0-7.021,8.111v9.262a8.148,8.148,0,0,0,1.221,4.3,8.26,8.26,0,0,0,2.2,2.359c.05.036.1.072.152.107a8.162,8.162,0,0,0,2.415,1.128,8.165,8.165,0,0,0,1.031.219v3.329a10.878,10.878,0,0,1-3.446-.7,10.882,10.882,0,0,1-2.354-1.24,10.962,10.962,0,0,1-1.894-1.669,10.8,10.8,0,0,1-2.215-3.792,10.71,10.71,0,0,1-.558-3.41v-8.6a5.8,5.8,0,0,1,2.269,1.013V-105.8a8.151,8.151,0,0,0-2.269-.677,8.291,8.291,0,0,0-1.177-.086h-.044a8.294,8.294,0,0,0-1.133.084v10.984a13.053,13.053,0,0,0,.863,4.671,13.272,13.272,0,0,0,6.157,6.953,13.184,13.184,0,0,0,2.354.974,13.266,13.266,0,0,0,3.446.564c.141.005.282.011.424.011a13.36,13.36,0,0,0,1.93-.141v-5.553a8.209,8.209,0,0,0,7.02-8.111v-9.187A8.2,8.2,0,0,0,2746.542-105.393Zm-1.177,9.273A5.853,5.853,0,0,1,2740.7-90.4v-6.8a5.852,5.852,0,0,1,4.666-5.719Z"/><g transform="translate(2752.386 -105.344)"><path class="b" d="M2822.933-83.824l5.535-5.228h-2.909l-5.948,5.819v-5.819a1.98,1.98,0,0,0-2.022,2.021v8.762a1.98,1.98,0,0,0,2.022,2.022v-4.439l1.807-1.706,4.381,6.145h2.676Z" transform="translate(-2813.537 89.052)"/><g transform="translate(0 0)"><rect class="b" width="1.929" height="9.397" transform="translate(0 3.408)"/><path class="b" d="M2805.523-89.052v2.107h1.929v-.178A1.889,1.889,0,0,0,2805.523-89.052Z" transform="translate(-2805.523 89.052)"/></g><path class="b" d="M2904.863-82.444a3.909,3.909,0,0,0-1.125-.709,3.028,3.028,0,0,0,.7-.575,2.991,2.991,0,0,0,.717-2.055,3.2,3.2,0,0,0-.58-1.887,3.765,3.765,0,0,0-3.28-1.382h-3.532a1.989,1.989,0,0,0-2.031,2.03v10.775h5.476a4.474,4.474,0,0,0,3.75-1.528,3.651,3.651,0,0,0,.8-2.291A3.173,3.173,0,0,0,2904.863-82.444Zm-1.549,3.559a2.432,2.432,0,0,1-2.076.82h-3.472v-3.992h3.182a4.5,4.5,0,0,1,1.645.248,1.635,1.635,0,0,1,1.1,1.667A2.069,2.069,0,0,1,2903.315-78.885Zm-1.054-5.191a3.683,3.683,0,0,1-1.591.277h-2.9v-3.467h2.844a4.389,4.389,0,0,1,1.6.222,1.427,1.427,0,0,1,.884,1.466A1.514,1.514,0,0,1,2902.26-84.076Z" transform="translate(-2865.446 89.052)"/><path class="b" d="M2868.133-78.781a4.641,4.641,0,0,0-2.063.487,5.061,5.061,0,0,1,1.441,1.469,2.783,2.783,0,0,1,.623-.073,2.8,2.8,0,0,1,2.794,2.793,2.8,2.8,0,0,1-2.794,2.793,2.8,2.8,0,0,1-2.793-2.793,2.777,2.777,0,0,1,.181-.981,2.445,2.445,0,0,0-1.449-1.328,4.648,4.648,0,0,0-.615,2.309,4.681,4.681,0,0,0,4.676,4.676,4.682,4.682,0,0,0,4.677-4.676A4.682,4.682,0,0,0,2868.133-78.781Z" transform="translate(-2844.005 82.23)"/><path class="b" d="M2854.34-71.384a2.792,2.792,0,0,1-.622.072,2.8,2.8,0,0,1-2.794-2.793,2.8,2.8,0,0,1,2.794-2.793,2.8,2.8,0,0,1,2.792,2.793,2.769,2.769,0,0,1-.182.984,2.455,2.455,0,0,0,1.449,1.328,4.646,4.646,0,0,0,.617-2.311,4.681,4.681,0,0,0-4.676-4.676,4.681,4.681,0,0,0-4.677,4.676,4.682,4.682,0,0,0,4.677,4.676,4.641,4.641,0,0,0,2.068-.489A5.066,5.066,0,0,1,2854.34-71.384Z" transform="translate(-2834.43 82.23)"/></g></g></g></svg>