<svg xmlns="http://www.w3.org/2000/svg" width="138" height="46" viewBox="0 0 138 46"><defs><style>.a{fill:#fff;}.b{fill:#60513a;}.c{fill:#0c2e86;}</style></defs><g transform="translate(-1024 -1832)"><rect class="a" width="138" height="46" transform="translate(1024 1832)"/><g transform="translate(926.863 1388.974)"><g transform="translate(146.24 460.344)"><path class="b" d="M252.487,492.81h7.193v.52h-7.193v2.557h8.519v-.98h-6.993v-.6h6.993v-2.475h-8.519Z" transform="translate(-239.612 -484.864)"/><path class="b" d="M255.689,476.743h3.55v-.95h-7.151v-.478h6.986v-.95h-6.986v-.5h7.151v-.948h-8.67v3.834h1.519v0h2.076v.537h-4.378v1.139h10.226v-1.139h-4.323Z" transform="translate(-237.763 -471.907)"/><path class="b" d="M410.186,474v6.558h1.788v-7.7h-8.906l-.147.191.73.95Z" transform="translate(-342.628 -471.872)"/><path class="b" d="M287.189,474.655v3.534l7.522-.611v.691H296.5v-6.24h-1.788v4.535l-5.735.418v-1.248h4.242v-3.376h-6.481l-.146.19.73.95h4.11v1.158Z" transform="translate(-262.967 -471.302)"/><path class="b" d="M236.766,472.028h-1.788v10.509h1.788V476.2h1.258v-1.139h-1.258Z" transform="translate(-227.622 -471.302)"/><path class="b" d="M390.173,472.028h-1.788V478.2h1.788V476.2h1.7v-1.139h-1.7Z" transform="translate(-332.675 -471.302)"/><path class="b" d="M407.568,490.7V486.47h-1.512V490.7h-1.323V486.47h-1.512V490.7h-2.254l-.147.19.73.95h9.781V490.7Z" transform="translate(-341.19 -481.192)"/><path class="b" d="M288.681,493.826l.73.95h6.734v2.547h1.789v-3.686h-9.107Z" transform="translate(-264.398 -486.1)"/><path class="b" d="M364.576,493.826l.729.95h6.76v2.547h1.788v-3.686h-9.131Z" transform="translate(-316.37 -486.1)"/><path class="b" d="M333.641,475.057h-.821v-3.028h-1.577v6.29l-3.862.392V473.5h2.761v-1.14h-4.551v7.618l5.651-.579v3.141h1.577V476.2h.821v6.341h1.577V472.028h-1.577Z" transform="translate(-289.674 -471.302)"/><path class="b" d="M365.112,476.744a3.121,3.121,0,0,0,3.3-2.906,2.711,2.711,0,0,0-.866-1.957h1.109v-1.14h-2.6v-1.015h-1.788v1.015h-3.153l-.147.19.729.951h.981a2.715,2.715,0,0,0-.866,1.957A3.122,3.122,0,0,0,365.112,476.744Zm0-4.682a1.751,1.751,0,1,1-1.75,1.749A1.75,1.75,0,0,1,365.112,472.062Z" transform="translate(-313.899 -469.725)"/><g transform="translate(0 1.126)"><path class="b" d="M217.561,473.3h-5.773l-.147.189.729.95h3.323a7.037,7.037,0,0,1-.867,2.614,7.232,7.232,0,0,1-3.175,3.23l.344.792a8.97,8.97,0,0,0,3.179-2.239A8.7,8.7,0,0,0,217.561,473.3Z" transform="translate(-211.641 -473.296)"/></g></g><path class="c" d="M141.958,459.174a33.285,33.285,0,0,0-24.678,0c-.244.12-.362.228-.362.506v12.7c0,.277.119.385.362.506a33.281,33.281,0,0,0,24.678,0c.244-.121.362-.229.362-.506v-12.7C142.321,459.4,142.2,459.294,141.958,459.174Zm-3.7.2a.736.736,0,0,1,.925-.569.7.7,0,0,1,.285.148l.005,0-.08.224-.011-.013a.5.5,0,0,0-.247-.155.485.485,0,0,0-.377.042.684.684,0,0,0-.238.864.48.48,0,0,0,.291.227.614.614,0,0,0,.3.009l.017-.006-.051.233h-.007a.754.754,0,0,1-.322-.031A.727.727,0,0,1,138.257,459.376Zm-1.794-1.185,0-.01.214.043-.307,1.522-.213-.043Zm-2.522-.4v-.01l.216.029s-.173,1.308-.175,1.328l.572.075-.028.211-.787-.1Zm-3.208.516a.872.872,0,0,1,.255-.612.623.623,0,0,1,.46-.155.707.707,0,0,1,.632.837.873.873,0,0,1-.252.613.672.672,0,0,1-.908-.047A.872.872,0,0,1,130.733,458.3Zm-2.674-.758.021.641.64-.021-.021-.641.207-.007h.01l.052,1.552-.218.007s-.022-.678-.023-.7l-.64.021c0,.02.023.7.023.7l-.217.007-.052-1.552Zm-.414,2.145c.7-.041,1.366-.062,1.98-.062a33.688,33.688,0,0,1,9.7,1.387H127.644Zm0,2.033h12.289c0,.029,0,.058,0,.084v.35H128.988v2.994h5.039v.434h-6.383Zm2.052,2.72v-.435h10.241v.435Zm10.241.708v.434h-5.2v-.434ZM129.7,463.3v-.434h10.241v.434Zm4.332,2.993v2.719H125.3v-.434h7.211v-1.851H125.3v-5.719h-5.366a29.825,29.825,0,0,1,7-1.27v6.555Zm-7.95-8.612.01,0,.023.212-.426.049c0,.02.15,1.33.15,1.33l-.216.025s-.148-1.312-.15-1.331l-.426.048-.024-.212Zm-3.284.482.211-.04.007,0,.872,1.413-.232.045-.211-.353-.65.124-.065.406-.225.043Zm-2.936.893a.755.755,0,0,1,.762-.357h.007l.048.233-.016-.005a.5.5,0,0,0-.292-.005.487.487,0,0,0-.3.231.622.622,0,0,0-.039.477.536.536,0,0,0,.65.43.619.619,0,0,0,.264-.15l.011-.014.077.225-.005,0a.775.775,0,0,1-.291.14.712.712,0,0,1-.549-.052.843.843,0,0,1-.379-.527A.824.824,0,0,1,119.857,459.054Zm-.544,2.75c0-.028,0-.058,0-.09h5.277v5.01h-5.281Zm0,5.63h12.492v.434h-7.212v1.851h10.142v-3.428h5.2v3.621a.917.917,0,0,1-.121.5.754.754,0,0,1-.273.213,23.619,23.619,0,0,1-4.807,1.1v-1.568h-15.4a1.586,1.586,0,0,1-.021-.241Zm14.715,3.428v.949a38.361,38.361,0,0,1-4.4.278,35.229,35.229,0,0,1-9.223-1.227Zm-14.805,2.012a.5.5,0,0,1-.307-.252.725.725,0,0,1,.009-.559l.292-.849,0-.009.206.07-.286.832a.566.566,0,0,0-.025.423.331.331,0,0,0,.4.138.565.565,0,0,0,.241-.349l.286-.832.205.071-.294.859C119.816,472.826,119.555,472.989,119.222,472.874Zm1.724.512-.243-1.358-.345,1.187-.209-.061.43-1.481,0-.009.274.079s.224,1.262.235,1.327c.018-.064.338-1.161.338-1.161l.208.061-.432,1.491Zm.9.238-.211-.053.379-1.5,0-.009.211.053Zm.773.182-.181-1.615v-.014l.237.052s.123,1.335.128,1.382l.7-1.2.223.049-.854,1.4Zm2.063-.964-.566-.1-.074.421.516.091-.037.21-.515-.091c0,.019-.081.459-.084.478l.566.1-.037.21-.781-.137.268-1.519,0-.01.78.138Zm1.166.38a.353.353,0,0,1-.321.312.264.264,0,0,1,.1.167l.181.654-.245-.033-.139-.561c-.039-.15-.1-.158-.2-.172l-.107-.015c0,.02-.092.675-.092.675l-.215-.03.208-1.528,0-.01.345.047a.619.619,0,0,1,.422.182.357.357,0,0,1,.068.224A.643.643,0,0,1,125.851,473.221Zm.718.279a.523.523,0,0,1,.31.519.448.448,0,0,1-.558.414.851.851,0,0,1-.278-.092l-.007,0,.044-.222.012.007a.755.755,0,0,0,.273.1.288.288,0,0,0,.2-.058.222.222,0,0,0,.08-.155c.015-.151-.1-.224-.225-.308-.15-.1-.319-.21-.293-.472a.413.413,0,0,1,.492-.381.858.858,0,0,1,.291.085l.007,0-.053.218-.011-.006a.546.546,0,0,0-.247-.088.262.262,0,0,0-.188.043.183.183,0,0,0-.062.127C126.35,473.353,126.451,473.422,126.569,473.5Zm.813,1-.217-.016.113-1.538v-.01l.217.016Zm1.421-1.266-.428-.019c0,.019-.06,1.338-.06,1.338l-.217-.01s.059-1.319.059-1.338l-.428-.019.009-.2v-.01l1.074.048Zm1.463-.189s-.536.886-.537.885l0,.652h-.217s0-.642,0-.649l-.536-.889-.009-.016h.255s.387.651.4.679l.4-.677h.255Zm1.812,1.3a.625.625,0,0,1-.443.2c-.409.024-.691-.275-.721-.762a.707.707,0,0,1,.625-.841c.4-.023.693.282.721.761A.875.875,0,0,1,132.078,474.342Zm.776.082-.217.022-.156-1.544.739-.075h.01l.021.212-.533.055c0,.018.041.407.043.425l.51-.051.021.212-.509.051C132.786,473.749,132.854,474.424,132.854,474.424Zm2.457-.328s-.285.044-.294.042l-.7-.629c.009.051.113.724.113.724l-.215.034-.238-1.534.214-.033.1.649c.069-.109.464-.735.471-.739l.26-.04.022,0s-.527.813-.537.826l.826.7Zm.749-.12c-.4.08-.723-.177-.819-.655a.707.707,0,0,1,.5-.92c.395-.079.724.184.819.655A.7.7,0,0,1,136.06,473.976Zm1.723-.421-.338-.47a.186.186,0,0,0-.25-.086l-.105.027.164.66-.211.053-.374-1.507.338-.083a.616.616,0,0,1,.459.012.4.4,0,0,1,.173.268.419.419,0,0,1,.011.1.349.349,0,0,1-.194.313.266.266,0,0,1,.157.116l.409.542Zm.539-.144-.433-1.491.751-.218.01,0,.059.2-.552.16c0,.018.113.393.119.411l.5-.146.06.2-.5.146.135.466.552-.16.06.2Zm2.068-.651-.256-.322-.628.212c0,.013-.009.411-.009.411l-.217.073.07-1.662.2-.069.006,0,1.056,1.283Zm-9.015-13.836a.385.385,0,0,0,.288-.1.776.776,0,0,0,.044-.954.376.376,0,0,0-.272-.126.381.381,0,0,0-.283.1.674.674,0,0,0-.191.47C130.947,458.585,131.047,458.908,131.375,458.924Zm8.135,13.514.493-.167-.477-.6C139.525,471.723,139.51,472.412,139.51,472.438Zm3.435-13.525a1.024,1.024,0,0,0-.39-.339,34.1,34.1,0,0,0-25.867,0,1.028,1.028,0,0,0-.39.339,1.58,1.58,0,0,0-.16.761v12.7a1.583,1.583,0,0,0,.16.762,1.018,1.018,0,0,0,.362.324,34.083,34.083,0,0,0,25.923,0,1.02,1.02,0,0,0,.362-.324,1.564,1.564,0,0,0,.159-.762v-12.7A1.561,1.561,0,0,0,142.944,458.913Zm-.355,13.472a.871.871,0,0,1-.072.434.54.54,0,0,1-.221.223,33.583,33.583,0,0,1-25.35,0,.543.543,0,0,1-.222-.223.884.884,0,0,1-.072-.434v-12.7a.887.887,0,0,1,.072-.435.544.544,0,0,1,.222-.224,33.583,33.583,0,0,1,25.35,0,.54.54,0,0,1,.221.224.874.874,0,0,1,.072.435Zm-10.752.866a.4.4,0,0,0-.555.032.778.778,0,0,0,.052.955.412.412,0,0,0,.564-.033.777.777,0,0,0-.061-.953Zm-6.449-.306-.178-.024c0,.018-.057.423-.06.441l.157.021a.316.316,0,0,0,.238-.045.2.2,0,0,0,.078-.143.2.2,0,0,0,0-.036C125.625,473.043,125.541,472.965,125.388,472.945Zm10.693-.28a.405.405,0,0,0-.545.109.676.676,0,0,0-.07.5c.054.266.23.555.552.49a.386.386,0,0,0,.256-.165.779.779,0,0,0-.192-.936Zm1.024-.322-.174.043c.005.018.1.414.108.432l.153-.038c.15-.037.232-.121.232-.232a.27.27,0,0,0-.007-.06C137.384,472.355,137.27,472.3,137.105,472.343Zm-14.164-13.96c-.008.05-.116.73-.12.756l.512-.1Z" transform="translate(0)"/></g></g></svg>